<?xml version="1.0" encoding="iso-8859-1"?>
<!-- Generator: Adobe Illustrator 19.0.0, SVG Export Plug-In . SVG Version: 6.00 Build 0)  -->
<svg version="1.1" id="Capa_1" xmlns="http://www.w3.org/2000/svg" xmlns:xlink="http://www.w3.org/1999/xlink" x="0px" y="0px"
	 viewBox="0 0 512 512" style="enable-background:new 0 0 512 512;" xml:space="preserve">
<path style="fill:#FBD5AB;" d="M144.862,367.138c-61.281-61.281-61.281-160.994,0-222.275s160.994-61.281,222.275,0
	s61.281,160.994,0,222.275S206.144,428.419,144.862,367.138z"/>
<path d="M256,423.094c-42.809,0-85.619-16.295-118.208-48.886c-65.181-65.18-65.181-171.237,0-236.417
	c65.18-65.181,171.237-65.181,236.417,0c65.181,65.18,65.181,171.237,0,236.417C341.619,406.799,298.809,423.094,256,423.094z
	 M256,108.901c-39.359,0-76.317,15.282-104.066,43.032c-27.75,27.749-43.032,64.707-43.032,104.066s15.282,76.317,43.032,104.066
	c27.75,27.75,64.708,43.032,104.066,43.032s76.317-15.282,104.066-43.032c27.75-27.75,43.032-64.707,43.032-104.066
	s-15.282-76.317-43.032-104.066C332.317,124.184,295.359,108.901,256,108.901z"/>
<circle style="fill:#FEBB8E;" cx="256" cy="256" r="113.57"/>
<path d="M336.31,185.7c-0.66,0-1.31-0.07-1.96-0.2c-0.64-0.13-1.27-0.32-1.87-0.57s-1.18-0.56-1.73-0.92
	c-0.54-0.36-1.06-0.78-1.52-1.24s-0.88-0.98-1.24-1.52c-0.36-0.54-0.67-1.13-0.92-1.73c-0.25-0.6-0.44-1.23-0.57-1.87
	c-0.13-0.65-0.2-1.3-0.2-1.95c0-0.66,0.07-1.31,0.2-1.96c0.13-0.64,0.32-1.26,0.57-1.87c0.25-0.6,0.56-1.18,0.92-1.72
	c0.36-0.55,0.78-1.06,1.24-1.52c0.46-0.47,0.98-0.88,1.52-1.25c0.55-0.36,1.13-0.67,1.73-0.92s1.23-0.44,1.87-0.57
	c1.29-0.26,2.62-0.26,3.91,0c0.64,0.13,1.27,0.32,1.87,0.57s1.18,0.56,1.72,0.92c0.55,0.37,1.06,0.78,1.52,1.25
	c0.47,0.46,0.88,0.97,1.25,1.52c0.36,0.54,0.67,1.12,0.92,1.72c0.25,0.61,0.44,1.23,0.57,1.87c0.13,0.65,0.19,1.3,0.19,1.96
	c0,0.65-0.06,1.3-0.19,1.95c-0.13,0.64-0.32,1.27-0.57,1.87c-0.25,0.6-0.56,1.19-0.92,1.73c-0.37,0.54-0.78,1.06-1.25,1.52
	c-0.46,0.46-0.97,0.88-1.52,1.24c-0.54,0.36-1.12,0.67-1.72,0.92s-1.23,0.44-1.87,0.57C337.61,185.63,336.96,185.7,336.31,185.7z"/>
<path d="M256,379.567c-33.006,0-64.037-12.853-87.376-36.192c-23.339-23.338-36.192-54.369-36.192-87.375
	s12.853-64.037,36.192-87.376c34.233-34.234,85.642-45.333,130.968-28.277c5.169,1.945,7.782,7.712,5.837,12.881
	c-1.945,5.169-7.713,7.783-12.881,5.837c-37.996-14.298-81.087-4.995-109.782,23.7c-19.562,19.562-30.335,45.569-30.335,73.233
	s10.773,53.672,30.334,73.233s45.569,30.335,73.233,30.335s53.672-10.773,73.233-30.334c11.826-11.825,20.689-26.452,25.631-42.3
	c1.645-5.272,7.253-8.213,12.523-6.569c5.272,1.644,8.214,7.251,6.569,12.524c-5.902,18.925-16.477,36.383-30.582,50.487
	C320.037,366.714,289.006,379.567,256,379.567z"/>
<path style="fill:#FF455E;" d="M323.284,228.92c-2.404-11.123-8.316-20.376-16.646-26.054c-7.923-5.4-17.28-7.036-27.061-4.731
	c-9.815,2.313-14.081,8.436-23.577,18.216c-9.495-9.781-13.761-15.903-23.577-18.216c-9.781-2.305-19.138-0.669-27.061,4.731
	c-8.33,5.677-14.242,14.93-16.646,26.054c-2.471,11.432-0.858,23.676,4.542,34.475c10.699,21.399,62.345,51.486,62.742,51.486
	s52.042-30.086,62.742-51.486C324.142,252.595,325.754,240.352,323.284,228.92z"/>
<path d="M256,324.88c-3.031,0-3.93-0.428-13.753-6.547c-4.652-2.898-11.823-7.511-19.56-13.029
	c-20.268-14.454-33.179-27.05-38.372-37.438c-6.414-12.827-8.322-27.409-5.372-41.059c2.948-13.64,10.331-25.077,20.788-32.205
	c10.306-7.022,22.403-9.166,34.987-6.201c9.586,2.259,15.218,7.141,21.283,13.432c6.065-6.291,11.696-11.173,21.283-13.432
	c12.582-2.966,24.682-0.821,34.986,6.201c10.458,7.128,17.841,18.565,20.789,32.205v0.001c2.95,13.65,1.042,28.232-5.372,41.06
	c-5.194,10.387-18.104,22.983-38.372,37.437c-7.737,5.518-14.908,10.13-19.56,13.029C259.93,324.452,259.031,324.88,256,324.88z
	 M223.898,207.113c-4.658,0-8.98,1.342-12.904,4.017c-6.202,4.227-10.643,11.296-12.503,19.903
	c-1.992,9.215-0.673,19.12,3.712,27.889c7.096,14.192,40.147,36.251,53.797,44.45c13.65-8.199,46.702-30.258,53.797-44.45
	c4.385-8.77,5.704-18.675,3.712-27.89c-1.86-8.606-6.301-15.675-12.504-19.903c-5.622-3.832-12.061-4.928-19.135-3.261
	c-5.026,1.184-7.599,3.708-14.299,10.829c-1.354,1.439-2.804,2.979-4.396,4.62c-1.883,1.94-4.472,3.035-7.175,3.035
	c-2.704,0-5.292-1.095-7.175-3.035c-1.592-1.641-3.042-3.181-4.396-4.62c-6.701-7.121-9.273-9.645-14.299-10.829
	C227.993,207.365,225.913,207.113,223.898,207.113z"/>
<path style="fill:#FF9B5F;" d="M502,283.917h-51.424V109.095l0,0C483.048,134.667,502,173.717,502,215.049V283.917z"/>
<rect x="450.58" y="283.92" style="fill:#006D87;" width="33.512" height="118.99"/>
<path d="M456.763,101.238c-3.009-2.37-7.109-2.812-10.553-1.14c-3.446,1.673-5.634,5.166-5.634,8.997v293.811
	c0,5.523,4.477,10,10,10h33.512c5.523,0,10-4.477,10-10V293.917H502c5.523,0,10-4.477,10-10v-68.869
	C512,170.366,491.867,128.884,456.763,101.238z M460.577,132.174C480.751,154.821,492,184.04,492,215.049v58.869h-31.424
	L460.577,132.174z M474.088,392.905h-13.512v-98.988h13.512V392.905z"/>
<rect x="29.24" y="263.92" style="fill:#006D87;" width="33.512" height="138.99"/>
<path style="fill:#FF9B5F;" d="M59.5,197.094h-27c-12.426,0-22.5-10.074-22.5-22.5v-25.611h72v25.611
	C82,187.02,71.926,197.094,59.5,197.094z"/>
<path d="M92,109.095c0-5.523-4.477-10-10-10s-10,4.477-10,10v29.889H56v-29.889c0-5.523-4.477-10-10-10s-10,4.477-10,10v29.889H20
	v-29.889c0-5.523-4.477-10-10-10s-10,4.477-10,10v38.5c0,0.233,0.009,0.465,0.024,0.694C0.009,148.519,0,148.75,0,148.983v25.61
	c0,17.921,14.58,32.5,32.5,32.5H36v46.822h-6.756c-5.523,0-10,4.477-10,10v138.99c0,5.523,4.477,10,10,10h33.512
	c5.523,0,10-4.477,10-10v-138.99c0-5.523-4.477-10-10-10H56v-46.822h3.5c17.92,0,32.5-14.579,32.5-32.5v-25.61
	c0-0.233-0.009-0.465-0.024-0.694c0.016-0.23,0.024-0.461,0.024-0.694V109.095z M52.756,392.905H39.244v-118.99h13.512V392.905z
	 M72,174.594c0,6.893-5.607,12.5-12.5,12.5h-27c-6.893,0-12.5-5.607-12.5-12.5v-15.61h52V174.594z"/>
<g>
</g>
<g>
</g>
<g>
</g>
<g>
</g>
<g>
</g>
<g>
</g>
<g>
</g>
<g>
</g>
<g>
</g>
<g>
</g>
<g>
</g>
<g>
</g>
<g>
</g>
<g>
</g>
<g>
</g>
</svg>
