<?xml version="1.0" encoding="iso-8859-1"?>
<!-- Generator: Adobe Illustrator 19.0.0, SVG Export Plug-In . SVG Version: 6.00 Build 0)  -->
<svg version="1.1" id="Capa_1" xmlns="http://www.w3.org/2000/svg" xmlns:xlink="http://www.w3.org/1999/xlink" x="0px" y="0px"
	 viewBox="0 0 472.002 472.002" style="enable-background:new 0 0 472.002 472.002;" xml:space="preserve">
<g>
	<path style="fill:#008100;" d="M400.001,63.994l47.999-47.999l24.002,24.002l-47.999,47.999L400.001,63.994z"/>
	<path style="fill:#008100;" d="M368,8.001h40v64h-40V8.001z"/>
	<path style="fill:#008100;" d="M303.974,39.997l24.002-24.002l47.999,47.999l-24.002,24.002L303.974,39.997z"/>
	<path style="fill:#008100;" d="M112,0.001c-17.673,0-32,14.327-32,32v4.8c-15.059-13.224-37.987-11.736-51.211,3.323
		c-12.078,13.754-12.022,34.35,0.131,48.037C11.335,89.925-1.49,105.61,0.274,123.195C1.91,139.506,15.607,151.942,32,152.001h8v40
		h104v-160C144,14.328,129.673,0.001,112,0.001z"/>
</g>
<path style="fill:#6D421F;" d="M8,296.001h464v176H8V296.001z"/>
<path style="fill:#33BC00;" d="M291.2,112.129l2.472-2.472c16.393-16.367,16.415-42.924,0.048-59.318
	c-14.384-14.407-37.036-16.405-53.72-4.738v-5.6c0-22.091-17.909-40-40-40s-40,17.909-40,40v5.6
	c-19.004-13.246-45.148-8.578-58.394,10.427c-11.616,16.665-9.619,39.259,4.738,53.629l2.472,2.472
	c-22.021,1.766-38.44,21.049-36.675,43.069c1.666,20.78,19.012,36.795,39.859,36.803c4.418,0,8,3.582,8,8v56h160v-56
	c0-4.418,3.582-8,8-8c22.091,0.001,40.001-17.906,40.003-39.997C328.004,131.151,311.986,113.796,291.2,112.129L291.2,112.129z"/>
<g>
	<path style="fill:#008100;" d="M208,120.001h-16v-8c0-8.837-7.163-16-16-16s-16,7.163-16,16v8h-16v-8c0-17.673,14.327-32,32-32
		s32,14.327,32,32V120.001z"/>
	<path style="fill:#008100;" d="M232,152.001h-16c0.026-22.08,17.92-39.974,40-40v16C242.745,128.001,232,138.746,232,152.001z"/>
</g>
<path style="fill:#FF6536;" d="M388,64.001c-41.836,0.331-75.669,34.164-76,76v15.672c0.001,3.359,0.304,6.711,0.904,10.016
	l16.424,90.312h117.344l14.544-80l1.872-10.312c0.337-1.882,0.577-3.781,0.72-5.688c0.112-1.44,0.192-2.888,0.192-4.328v-15.672
	C463.952,98.047,429.954,64.049,388,64.001z"/>
<g>
	<path style="fill:#FFA900;" d="M408,112.001h-90.584c-2.041,5.156-3.505,10.522-4.368,16H408V112.001z"/>
	<path style="fill:#FFA900;" d="M463.808,160.001H408v16h53.224l1.872-10.312C463.43,163.806,463.668,161.908,463.808,160.001z"/>
	<path style="fill:#FFA900;" d="M376,160.001h16v16h-16V160.001z"/>
	<path style="fill:#FFA900;" d="M360,208.001h48v16h-48V208.001z"/>
</g>
<path style="fill:#FBBF00;" d="M304,168.001c-39.746,0.044-71.956,32.254-72,72v16h144v-16
	C375.956,200.255,343.746,168.045,304,168.001z"/>
<path style="fill:#DE0418;" d="M176,168.001c-39.746,0.044-71.956,32.254-72,72v16h144v-16
	C247.956,200.255,215.746,168.045,176,168.001z"/>
<path style="fill:#FBBF00;" d="M56,128.001H40c-22.08,0.026-39.974,17.92-40,40c0.053,48.579,39.421,87.947,88,88h16
	c22.08-0.026,39.974-17.92,40-40C143.947,167.422,104.579,128.054,56,128.001z"/>
<path style="fill:#5B3514;" d="M8,248.001h464v48H8V248.001z"/>
<g>
</g>
<g>
</g>
<g>
</g>
<g>
</g>
<g>
</g>
<g>
</g>
<g>
</g>
<g>
</g>
<g>
</g>
<g>
</g>
<g>
</g>
<g>
</g>
<g>
</g>
<g>
</g>
<g>
</g>
</svg>
