<?xml version="1.0" encoding="iso-8859-1"?>
<!-- Generator: Adobe Illustrator 19.0.0, SVG Export Plug-In . SVG Version: 6.00 Build 0)  -->
<svg version="1.1" id="Capa_1" xmlns="http://www.w3.org/2000/svg" xmlns:xlink="http://www.w3.org/1999/xlink" x="0px" y="0px"
	 viewBox="0 0 496 496" style="enable-background:new 0 0 496 496;" xml:space="preserve">
<g>
	<g>
		<g>
			<polygon points="480,112 480,368 16,368 16,112 0,112 0,384 496,384 496,112 			"/>
			<path d="M248,352c57.344,0,104-46.656,104-104s-46.656-104-104-104s-104,46.656-104,104S190.656,352,248,352z M248,160
				c48.52,0,88,39.48,88,88s-39.48,88-88,88c-48.52,0-88-39.48-88-88C160,199.48,199.48,160,248,160z"/>
			<path d="M240,304v16h16v-16c17.648,0,32-14.352,32-32s-14.352-32-32-32h-16c-8.824,0-16-7.176-16-16c0-8.824,7.176-16,16-16h16
				c8.824,0,16,7.176,16,16v8h16v-8c0-17.648-14.352-32-32-32v-16h-16v16c-17.648,0-32,14.352-32,32s14.352,32,32,32h16
				c8.824,0,16,7.176,16,16c0,8.824-7.176,16-16,16h-16c-8.824,0-16-7.176-16-16v-8h-16v8C208,289.648,222.352,304,240,304z"/>
			<path d="M368,168.432V264h64v-95.568c25.16-12.704,40-39.36,40-72.432c0-45.408-29.568-96-72-96s-72,50.592-72,96
				C328,129.072,342.84,155.728,368,168.432z M400,16c29.304,0,56,38.136,56,80c0,28.48-13.104,50.864-35.048,59.904l-4.952,2.04
				V248h-32v-90.056l-4.952-2.04C357.104,146.864,344,124.48,344,96C344,54.136,370.696,16,400,16z"/>
			<path d="M416,464c0,8.824-7.176,16-16,16c-8.824,0-16-7.176-16-16v-64h-16v64c0,17.648,14.352,32,32,32s32-14.352,32-32v-64h-16
				V464z"/>
			<path d="M112,464c0,4.432-1.776,8.544-4.984,11.6c-3.208,3.056-7.36,4.616-11.88,4.376C86.792,479.536,80,471.768,80,462.64V400
				H64v62.64c0,17.792,13.304,32.432,30.296,33.32c0.576,0.024,1.152,0.04,1.72,0.04c8.24,0,16-3.088,22.016-8.792
				C124.368,481.192,128,472.736,128,464v-64h-16V464z"/>
			<path d="M64,168.432V264h64v-95.568c25.16-12.704,40-39.36,40-72.432V20c0-11.024-8.968-20-20-20s-20,8.976-20,20v60h-8V24
				c0-13.232-10.768-24-24-24S72,10.768,72,24v56h-8V20C64,8.976,55.032,0,44,0S24,8.976,24,20v76
				C24,129.072,38.84,155.728,64,168.432z M40,20c0-2.208,1.8-4,4-4s4,1.792,4,4v76h40V24c0-4.408,3.584-8,8-8s8,3.592,8,8v72h40V20
				c0-2.208,1.8-4,4-4s4,1.792,4,4v76c0,28.48-13.104,50.864-35.048,59.904l-4.952,2.04V248H80v-90.056l-4.952-2.04
				C53.104,146.864,40,124.48,40,96V20z"/>
			<rect x="184" y="112" width="128" height="16"/>
		</g>
	</g>
</g>
<g>
</g>
<g>
</g>
<g>
</g>
<g>
</g>
<g>
</g>
<g>
</g>
<g>
</g>
<g>
</g>
<g>
</g>
<g>
</g>
<g>
</g>
<g>
</g>
<g>
</g>
<g>
</g>
<g>
</g>
</svg>
