<?xml version="1.0" encoding="iso-8859-1"?>
<!-- Generator: Adobe Illustrator 19.0.0, SVG Export Plug-In . SVG Version: 6.00 Build 0)  -->
<svg version="1.1" id="Capa_1" xmlns="http://www.w3.org/2000/svg" xmlns:xlink="http://www.w3.org/1999/xlink" x="0px" y="0px"
	 viewBox="0 0 512 512" style="enable-background:new 0 0 512 512;" xml:space="preserve">
<path style="fill:#FDD0AB;" d="M368,144c-17.645,0-32,14.355-32,32s14.355,32,32,32s32-14.355,32-32S385.645,144,368,144z"/>
<g>
	<path style="fill:#FEE2CA;" d="M144,144c-17.645,0-32,14.355-32,32s14.355,32,32,32s32-14.355,32-32S161.645,144,144,144z"/>
	<path style="fill:#FEE2CA;" d="M256,16c-66.168,0-120,53.832-120,120s53.832,120,120,120s120-53.832,120-120S322.168,16,256,16z"/>
</g>
<path style="fill:#FDD0AB;" d="M272,248c-66.168,0-120-53.832-120-120c0-43.768,23.558-82.132,58.655-103.095
	C166.903,42.829,136,85.87,136,136c0,66.168,53.832,120,120,120c22.4,0,43.382-6.176,61.345-16.905
	C303.347,244.829,288.038,248,272,248z"/>
<path style="fill:#F56C6C;" d="M200,0h112c35.346,0,64,28.654,64,64v40H136V64C136,28.654,164.654,0,200,0z"/>
<path style="fill:#DB4D4D;" d="M224,0h-24c-35.346,0-64,28.654-64,64v40h24V64C160,28.654,188.654,0,224,0z"/>
<path style="fill:#F2EDEC;" d="M256,0L256,0c35.346,0,64,28.654,64,64v40H192V64C192,28.654,220.654,0,256,0z"/>
<path style="fill:#956B64;" d="M216,240h-40c-22.056,0-40-17.944-40-40v-80c0-4.418,3.582-8,8-8s8,3.582,8,8v80
	c0,13.233,10.767,24,24,24h40c4.418,0,8,3.582,8,8S220.418,240,216,240z"/>
<path style="fill:#BDA39E;" d="M248,244h-32v-24h32c4.418,0,8,3.582,8,8v8C256,240.418,252.418,244,248,244z"/>
<path style="fill:#FBDC40;" d="M344,152H168c-17.673,0-32-14.327-32-32v-16h240v16C376,137.673,361.673,152,344,152z"/>
<path style="fill:#FAD000;" d="M160,120v-16h-24v16c0,17.673,14.327,32,32,32h24C174.327,152,160,137.673,160,120z"/>
<g>
	<path style="fill:#956B64;" d="M208,184c-3.313,0-6.358-2.123-7.503-5.229c-1.141-3.096-0.222-6.718,2.305-8.856
		c2.614-2.211,6.449-2.524,9.375-0.734c2.825,1.728,4.32,5.129,3.667,8.38C215.102,181.256,211.776,184,208,184z"/>
	<path style="fill:#956B64;" d="M304,184c-3.365,0-6.46-2.196-7.555-5.38c-1.093-3.178-0.054-6.822,2.602-8.9
		c2.551-1.996,6.118-2.254,8.934-0.655c2.898,1.646,4.481,5.067,3.888,8.341C311.188,181.173,307.838,184,304,184z"/>
</g>
<path style="fill:#FEE2CA;" d="M352,256H160c-22.056,0-40,17.944-40,40v208c0,4.418,3.582,8,8,8h256c4.418,0,8-3.582,8-8V296
	C392,273.944,374.056,256,352,256z"/>
<path style="fill:#F56C6C;" d="M352,256h-32l-64,47.875L192,256h-32c-22.056,0-40,17.944-40,40v208c0,4.418,3.582,8,8,8h256
	c4.418,0,8-3.582,8-8V296C392,273.944,374.056,256,352,256z"/>
<g>
	<path style="fill:#885951;" d="M320,360c-4.418,0-8-3.582-8-8v-64c0-4.418,3.582-8,8-8s8,3.582,8,8v64
		C328,356.418,324.418,360,320,360z"/>
	<path style="fill:#885951;" d="M192,360c-4.418,0-8-3.582-8-8v-64c0-4.418,3.582-8,8-8s8,3.582,8,8v64
		C200,356.418,196.418,360,192,360z"/>
</g>
<path style="fill:#A27E77;" d="M379.969,377.055l-56-32C322.761,344.363,321.393,344,320,344H192c-1.242,0-2.467,0.289-3.578,0.845
	l-64,32C121.712,378.2,120,380.97,120,384v120c0,4.418,3.582,8,8,8h248c4.418,0,8-3.582,8-8V384
	C384,381.13,382.462,378.479,379.969,377.055z"/>
<path style="fill:#F2EDEC;" d="M320,256l13.654,27.309c1.181,2.361-0.21,5.198-2.799,5.712L256,303.875L288,256H320z"/>
<path style="fill:#E4DAD8;" d="M192,256l-13.654,27.309c-1.181,2.361,0.21,5.198,2.799,5.712L256,303.875L224,256H192z"/>
<path style="fill:#F2EDEC;" d="M496,328H368c-4.418,0-8,3.582-8,8v168c0,4.418,3.582,8,8,8h128c4.418,0,8-3.582,8-8V336
	C504,331.582,500.418,328,496,328z"/>
<path style="fill:#E4DAD8;" d="M376,504V336c0-4.418,3.582-8,8-8h-16c-4.418,0-8,3.582-8,8v168c0,4.418,3.582,8,8,8h16
	C379.582,512,376,508.418,376,504z"/>
<g>
	<path style="fill:#D7C8C5;" d="M456,376h-48c-4.418,0-8-3.582-8-8s3.582-8,8-8h48c4.418,0,8,3.582,8,8S460.418,376,456,376z"/>
	<path style="fill:#D7C8C5;" d="M472,408h-80c-4.418,0-8-3.582-8-8s3.582-8,8-8h80c4.418,0,8,3.582,8,8S476.418,408,472,408z"/>
	<path style="fill:#D7C8C5;" d="M472,440h-80c-4.418,0-8-3.582-8-8s3.582-8,8-8h80c4.418,0,8,3.582,8,8S476.418,440,472,440z"/>
	<path style="fill:#D7C8C5;" d="M416,472h-24c-4.418,0-8-3.582-8-8s3.582-8,8-8h24c4.418,0,8,3.582,8,8S420.418,472,416,472z"/>
	<path style="fill:#D7C8C5;" d="M456,472h-16c-4.418,0-8-3.582-8-8s3.582-8,8-8h16c4.418,0,8,3.582,8,8S460.418,472,456,472z"/>
</g>
<path style="fill:#FBDC40;" d="M116.994,352H75.006c-1.938,0-3.81,0.703-5.268,1.979l-59.006,51.63
	C8.996,407.129,8,409.323,8,411.63V504c0,4.418,3.582,8,8,8h160c4.418,0,8-3.582,8-8v-92.37c0-2.307-0.996-4.502-2.732-6.021
	l-59.006-51.63C120.804,352.703,118.932,352,116.994,352z M112,408H80c-4.418,0-8-3.582-8-8v-8c0-4.418,3.582-8,8-8h32
	c4.418,0,8,3.582,8,8v8C120,404.418,116.418,408,112,408z"/>
<path style="fill:#FAD000;" d="M24,504v-92.37c0-2.307,0.996-4.501,2.732-6.021l59.006-51.63c1.458-1.276,3.33-1.979,5.268-1.979
	h-16c-1.938,0-3.81,0.703-5.268,1.979l-59.006,51.63C8.996,407.129,8,409.323,8,411.63V504c0,4.418,3.582,8,8,8h16
	C27.582,512,24,508.418,24,504z"/>
<g>
</g>
<g>
</g>
<g>
</g>
<g>
</g>
<g>
</g>
<g>
</g>
<g>
</g>
<g>
</g>
<g>
</g>
<g>
</g>
<g>
</g>
<g>
</g>
<g>
</g>
<g>
</g>
<g>
</g>
</svg>
