<svg aria-hidden="true" style="position: absolute; width: 0; height: 0; overflow: hidden;" version="1.1" xmlns="http://www.w3.org/2000/svg" xmlns:xlink="http://www.w3.org/1999/xlink">
<defs>
<symbol id="icon-restaurant_menu" viewBox="0 0 24 24">
<title>restaurant_menu</title>
<path d="M14.859 11.531l-1.453 1.453 6.891 6.891-1.406 1.406-6.891-6.891-6.891 6.891-1.406-1.406 9.75-9.75c-0.703-1.547-0.188-3.703 1.406-5.297 1.922-1.922 4.641-2.25 6.094-0.797s1.125 4.219-0.797 6.141c-1.594 1.594-3.75 2.063-5.297 1.359zM8.109 13.359l-4.219-4.219c-1.547-1.547-1.547-4.078 0-5.625l7.031 6.984z"></path>
</symbol>
<symbol id="icon-restaurant_menu2" viewBox="0 0 24 24">
<title>restaurant_menu2</title>
<path d="M14.859 11.531l-1.453 1.453 6.891 6.891-1.406 1.406-6.891-6.891-6.891 6.891-1.406-1.406 9.75-9.75c-0.703-1.547-0.188-3.703 1.406-5.297 1.922-1.922 4.641-2.25 6.094-0.797s1.125 4.219-0.797 6.141c-1.594 1.594-3.75 2.063-5.297 1.359zM8.109 13.359l-4.219-4.219c-1.547-1.547-1.547-4.078 0-5.625l7.031 6.984z"></path>
</symbol>
<symbol id="icon-restaurant" viewBox="0 0 24 24">
<title>restaurant</title>
<path d="M15.984 6c0-1.781 2.25-3.984 5.016-3.984v19.969h-2.484v-7.969h-2.531v-8.016zM11.016 9v-6.984h1.969v6.984c0 2.109-1.641 3.844-3.75 3.984v9h-2.484v-9c-2.109-0.141-3.75-1.875-3.75-3.984v-6.984h2.016v6.984h1.969v-6.984h2.016v6.984h2.016z"></path>
</symbol>
<symbol id="icon-food" viewBox="0 0 32 32">
<title>food</title>
<path d="M29.5 21h-2.691c-0.045-0.239-0.1-0.473-0.16-0.706l4.799-2.399c0.494-0.247 0.693-0.848 0.447-1.342-0.248-0.494-0.846-0.692-1.342-0.447l-4.578 2.288c-1.746-3.768-5.555-6.394-9.975-6.394-5.382 0-9.865 3.888-10.809 9h-2.691c-1.378 0-2.5 1.121-2.5 2.5 0 0.49 0.18 0.963 0.505 1.329l3.495 3.932v0.739c0 1.379 1.122 2.5 2.5 2.5h19c1.379 0 2.5-1.121 2.5-2.5v-0.739l3.494-3.932c0.326-0.366 0.506-0.839 0.506-1.329 0-1.379-1.121-2.5-2.5-2.5zM25.799 21h-0.562l0.498-0.25c0.019 0.084 0.046 0.165 0.064 0.25zM16 13c4.029 0 7.5 2.4 9.082 5.841l-0.891 0.445c-1.416-3.115-4.546-5.286-8.191-5.286-4.282 0-7.859 2.993-8.77 7h-1.028c0.929-4.559 4.969-8 9.798-8zM20.576 21c-0.773-1.763-2.531-3-4.576-3s-3.802 1.237-4.576 3h-1.074c0.826-2.326 3.043-4 5.65-4 2.465 0 4.588 1.496 5.508 3.627l-0.932 0.373zM16 20c-0.883 0-1.67 0.391-2.22 1h-1.224c0.694-1.189 1.97-2 3.444-2 1.473 0 2.75 0.811 3.443 2h-1.225c-0.548-0.609-1.335-1-2.218-1zM16 16c-3.165 0-5.842 2.112-6.705 5h-1.032c0.892-3.444 4.017-6 7.737-6 3.246 0 6.043 1.948 7.295 4.734l-0.893 0.446c-1.088-2.457-3.547-4.18-6.402-4.18zM26 28v1.5c0 0.276-0.225 0.5-0.5 0.5h-19c-0.276 0-0.5-0.224-0.5-0.5v-1.5l-4-4.5c0-0.276 0.224-0.5 0.5-0.5h27c0.275 0 0.5 0.224 0.5 0.5l-4 4.5zM7.977 11.712c-0.007-0.014-0.012-0.027-0.018-0.042-0.519-1.253-0.003-2.482 0.463-3.591 0.441-1.052 0.832-1.984 0.428-2.893-0.002-0.004-0.003-0.008-0.005-0.012-0.001-0.003-0.002-0.006-0.003-0.009-0.001-0.002-0.001-0.004-0.001-0.006-0.020-0.053-0.032-0.109-0.032-0.169 0-0.27 0.219-0.49 0.49-0.49 0.208 0 0.385 0.13 0.456 0.313 0.558 1.271 0.051 2.521-0.422 3.647-0.438 1.042-0.794 2.010-0.419 2.892 0.002 0.007 0.002 0.013 0 0.020 0.011 0.040 0.018 0.082 0.018 0.125 0 0.277-0.225 0.503-0.502 0.503-0.194 0-0.36-0.11-0.443-0.27-0.001 0-0.002 0-0.002 0-0.003-0.006-0.005-0.012-0.008-0.018zM20.154 11.566c-0.006-0.013-0.011-0.027-0.016-0.040-0.519-1.253-0.004-2.483 0.461-3.592 0.442-1.052 0.832-1.984 0.428-2.893 0-0.004-0.002-0.008-0.004-0.012s-0.002-0.006-0.004-0.009c0-0.002 0-0.004 0-0.006-0.019-0.053-0.033-0.109-0.033-0.169 0-0.27 0.22-0.49 0.49-0.49 0.209 0 0.385 0.129 0.457 0.313 0.558 1.271 0.051 2.521-0.422 3.647-0.438 1.042-0.793 2.010-0.42 2.892 0.004 0.007 0.004 0.013 0.002 0.020 0.010 0.040 0.018 0.082 0.018 0.125 0 0.277-0.227 0.503-0.504 0.503-0.193 0-0.359-0.111-0.443-0.271h-0.002c-0.002-0.006-0.004-0.012-0.008-0.018zM15.019 7.212c-0.007-0.014-0.012-0.027-0.019-0.041-0.52-1.253-0.004-2.483 0.462-3.592 0.441-1.052 0.832-1.984 0.428-2.893-0.001-0.004-0.003-0.008-0.004-0.012-0.001-0.003-0.002-0.006-0.003-0.009-0.001-0.002-0.001-0.004-0.001-0.006-0.020-0.053-0.032-0.109-0.032-0.169 0-0.27 0.22-0.49 0.49-0.49 0.209 0 0.385 0.13 0.457 0.314 0.558 1.271 0.051 2.521-0.422 3.647-0.438 1.042-0.794 2.010-0.419 2.892 0.002 0.007 0.002 0.013 0 0.020 0.011 0.040 0.018 0.082 0.018 0.125 0 0.277-0.225 0.503-0.502 0.503-0.193 0-0.359-0.111-0.443-0.271-0.001 0-0.002 0-0.002 0-0.003-0.006-0.005-0.012-0.008-0.018z"></path>
</symbol>
<symbol id="icon-add-to-list" viewBox="0 0 20 20">
<title>add-to-list</title>
<path d="M19.4 9h-3.4v-3.4c0-0.6-0.4-0.6-1-0.6s-1 0-1 0.6v3.4h-3.4c-0.6 0-0.6 0.4-0.6 1s0 1 0.6 1h3.4v3.4c0 0.6 0.4 0.6 1 0.6s1 0 1-0.6v-3.4h3.4c0.6 0 0.6-0.4 0.6-1s0-1-0.6-1zM7.4 9h-6.8c-0.6 0-0.6 0.4-0.6 1s0 1 0.6 1h6.8c0.6 0 0.6-0.4 0.6-1s0-1-0.6-1zM7.4 14h-6.8c-0.6 0-0.6 0.4-0.6 1s0 1 0.6 1h6.8c0.6 0 0.6-0.4 0.6-1s0-1-0.6-1zM7.4 4h-6.8c-0.6 0-0.6 0.4-0.6 1s0 1 0.6 1h6.8c0.6 0 0.6-0.4 0.6-1s0-1-0.6-1z"></path>
</symbol>
<symbol id="icon-controller-record" viewBox="0 0 20 20">
<title>controller-record</title>
<path d="M10 3c-3.866 0-7 3.133-7 7 0 3.865 3.134 7 7 7s7-3.135 7-7c0-3.867-3.134-7-7-7z"></path>
</symbol>
<symbol id="icon-cross" viewBox="0 0 20 20">
<title>cross</title>
<path d="M14.348 14.849c-0.469 0.469-1.229 0.469-1.697 0l-2.651-3.030-2.651 3.029c-0.469 0.469-1.229 0.469-1.697 0-0.469-0.469-0.469-1.229 0-1.697l2.758-3.15-2.759-3.152c-0.469-0.469-0.469-1.228 0-1.697s1.228-0.469 1.697 0l2.652 3.031 2.651-3.031c0.469-0.469 1.228-0.469 1.697 0s0.469 1.229 0 1.697l-2.758 3.152 2.758 3.15c0.469 0.469 0.469 1.229 0 1.698z"></path>
</symbol>
<symbol id="icon-drink" viewBox="0 0 20 20">
<title>drink</title>
<path d="M17.538 2.639c0.394-0.545 0.462-1.639 0.462-1.639h-16c0 0 0.068 1.094 0.462 1.639l6.538 8.361v6h-2c-2 0-2 2-2 2h10c0 0 0-2-2-2h-2v-6l6.538-8.361zM9.4 6c0-0.885 0.716-1.6 1.6-1.6s1.6 0.715 1.6 1.6c0 0.883-0.716 1.6-1.6 1.6s-1.6-0.717-1.6-1.6z"></path>
</symbol>
<symbol id="icon-home" viewBox="0 0 20 20">
<title>home</title>
<path d="M18.672 11h-1.672v6c0 0.445-0.194 1-1 1h-4v-6h-4v6h-4c-0.806 0-1-0.555-1-1v-6h-1.672c-0.598 0-0.47-0.324-0.060-0.748l8.024-8.032c0.195-0.202 0.451-0.302 0.708-0.312 0.257 0.010 0.513 0.109 0.708 0.312l8.023 8.031c0.411 0.425 0.539 0.749-0.059 0.749z"></path>
</symbol>
<symbol id="icon-list" viewBox="0 0 20 20">
<title>list</title>
<path d="M14.4 9h-5.8c-0.552 0-0.6 0.447-0.6 1s0.048 1 0.6 1h5.8c0.552 0 0.6-0.447 0.6-1s-0.048-1-0.6-1zM16.4 14h-7.8c-0.552 0-0.6 0.447-0.6 1s0.048 1 0.6 1h7.8c0.552 0 0.6-0.447 0.6-1s-0.048-1-0.6-1zM8.6 6h7.8c0.552 0 0.6-0.447 0.6-1s-0.048-1-0.6-1h-7.8c-0.552 0-0.6 0.447-0.6 1s0.048 1 0.6 1zM5.4 9h-1.8c-0.552 0-0.6 0.447-0.6 1s0.048 1 0.6 1h1.8c0.552 0 0.6-0.447 0.6-1s-0.048-1-0.6-1zM5.4 14h-1.8c-0.552 0-0.6 0.447-0.6 1s0.048 1 0.6 1h1.8c0.552 0 0.6-0.447 0.6-1s-0.048-1-0.6-1zM5.4 4h-1.8c-0.552 0-0.6 0.447-0.6 1s0.048 1 0.6 1h1.8c0.552 0 0.6-0.447 0.6-1s-0.048-1-0.6-1z"></path>
</symbol>
<symbol id="icon-magnifying-glass" viewBox="0 0 20 20">
<title>magnifying-glass</title>
<path d="M17.545 15.467l-3.779-3.779c0.57-0.935 0.898-2.035 0.898-3.21 0-3.417-2.961-6.377-6.378-6.377s-6.186 2.769-6.186 6.186c0 3.416 2.961 6.377 6.377 6.377 1.137 0 2.2-0.309 3.115-0.844l3.799 3.801c0.372 0.371 0.975 0.371 1.346 0l0.943-0.943c0.371-0.371 0.236-0.84-0.135-1.211zM4.004 8.287c0-2.366 1.917-4.283 4.282-4.283s4.474 2.107 4.474 4.474c0 2.365-1.918 4.283-4.283 4.283s-4.473-2.109-4.473-4.474z"></path>
</symbol>
<symbol id="icon-minus" viewBox="0 0 20 20">
<title>minus</title>
<path d="M16 10c0 0.553-0.048 1-0.601 1h-10.798c-0.552 0-0.601-0.447-0.601-1s0.049-1 0.601-1h10.799c0.552 0 0.6 0.447 0.6 1z"></path>
</symbol>
<symbol id="icon-phone" viewBox="0 0 20 20">
<title>phone</title>
<path d="M11.229 11.229c-1.583 1.582-3.417 3.096-4.142 2.371-1.037-1.037-1.677-1.941-3.965-0.102-2.287 1.838-0.53 3.064 0.475 4.068 1.16 1.16 5.484 0.062 9.758-4.211 4.273-4.274 5.368-8.598 4.207-9.758-1.005-1.006-2.225-2.762-4.063-0.475s-0.936 2.927 0.103 3.965c0.722 0.725-0.791 2.559-2.373 4.142z"></path>
</symbol>
<symbol id="icon-plus" viewBox="0 0 20 20">
<title>plus</title>
<path d="M16 10c0 0.553-0.048 1-0.601 1h-4.399v4.399c0 0.552-0.447 0.601-1 0.601s-1-0.049-1-0.601v-4.399h-4.399c-0.552 0-0.601-0.447-0.601-1s0.049-1 0.601-1h4.399v-4.399c0-0.553 0.447-0.601 1-0.601s1 0.048 1 0.601v4.399h4.399c0.553 0 0.601 0.447 0.601 1z"></path>
</symbol>
<symbol id="icon-shopping-cart" viewBox="0 0 20 20">
<title>shopping-cart</title>
<path d="M13 17c0 1.104 0.894 2 2 2 1.104 0 2-0.896 2-2 0-1.106-0.896-2-2-2-1.106 0-2 0.894-2 2zM3 17c0 1.104 0.895 2 2 2 1.103 0 2-0.896 2-2 0-1.106-0.897-2-2-2-1.105 0-2 0.894-2 2zM6.547 12.172l11.068-3.162c0.211-0.061 0.385-0.289 0.385-0.51v-5.5h-14v-1.6c0-0.22-0.181-0.4-0.399-0.4h-3.202c-0.219 0-0.399 0.18-0.399 0.4v1.6h2l1.91 8.957 0.090 0.943v1.649c0 0.219 0.18 0.4 0.4 0.4h13.2c0.22 0 0.4-0.182 0.4-0.4v-1.549h-11.248c-1.15 0-1.174-0.551-0.205-0.828z"></path>
</symbol>
<symbol id="icon-tablet" viewBox="0 0 20 20">
<title>tablet</title>
<path d="M16 0h-12c-1.1 0-2 0.899-2 2v16c0 1.1 0.9 2 2 2h12c1.101 0 2-0.9 2-2v-16c0-1.101-0.899-2-2-2zM10 19c-0.69 0-1.25-0.447-1.25-1s0.56-1 1.25-1c0.689 0 1.25 0.447 1.25 1s-0.561 1-1.25 1zM16 16h-12v-14h12v14z"></path>
</symbol>
<symbol id="icon-unread" viewBox="0 0 20 20">
<title>unread</title>
<path d="M17 3c-1.104 0-2 0.895-2 2s0.896 2 2 2 2-0.895 2-2c0-1.105-0.896-2-2-2zM12.5 4h-11c-0.276 0-0.5 0.224-0.5 0.5v1c0 0.276 0.224 0.5 0.5 0.5h11c0.276 0 0.5-0.224 0.5-0.5v-1c0-0.276-0.224-0.5-0.5-0.5zM12.5 9h-11c-0.276 0-0.5 0.224-0.5 0.5v1c0 0.276 0.224 0.5 0.5 0.5h11c0.276 0 0.5-0.224 0.5-0.5v-1c0-0.276-0.224-0.5-0.5-0.5zM12.5 14h-11c-0.276 0-0.5 0.224-0.5 0.5v1c0 0.276 0.224 0.5 0.5 0.5h11c0.276 0 0.5-0.224 0.5-0.5v-1c0-0.276-0.224-0.5-0.5-0.5z"></path>
</symbol>
<symbol id="icon-user" viewBox="0 0 20 20">
<title>user</title>
<path d="M7.725 2.146c-1.016 0.756-1.289 1.953-1.239 2.59 0.064 0.779 0.222 1.793 0.222 1.793s-0.313 0.17-0.313 0.854c0.109 1.717 0.683 0.976 0.801 1.729 0.284 1.814 0.933 1.491 0.933 2.481 0 1.649-0.68 2.42-2.803 3.334-2.13 0.918-4.326 2.073-4.326 4.073v1h18v-1c0-2-2.197-3.155-4.328-4.072-2.123-0.914-2.801-1.684-2.801-3.334 0-0.99 0.647-0.667 0.932-2.481 0.119-0.753 0.692-0.012 0.803-1.729 0-0.684-0.314-0.854-0.314-0.854s0.158-1.014 0.221-1.793c0.065-0.817-0.398-2.561-2.3-3.096-0.333-0.34-0.558-0.881 0.466-1.424-2.24-0.105-2.761 1.067-3.954 1.929z"></path>
</symbol>
<symbol id="icon-checkmark" viewBox="0 0 32 32">
<title>checkmark</title>
<path d="M27 4l-15 15-7-7-5 5 12 12 20-20z"></path>
</symbol>
</defs>
</svg>
