<?xml version="1.0" encoding="iso-8859-1"?>
<!-- Generator: Adobe Illustrator 19.0.0, SVG Export Plug-In . SVG Version: 6.00 Build 0)  -->
<svg version="1.1" id="Capa_1" xmlns="http://www.w3.org/2000/svg" xmlns:xlink="http://www.w3.org/1999/xlink" x="0px" y="0px"
	 viewBox="0 0 512 512" style="enable-background:new 0 0 512 512;" xml:space="preserve">
<path style="fill:#FEE2CA;" d="M240,488h112c1-16,0-96,0-96l13.255-13.255C377.257,366.743,384,350.464,384,333.49V120H192v200
	l48,56V488"/>
<path style="fill:#FDD0AB;" d="M288,336c0-67.763-88-88-88-88v-56c0-17.673-14.327-32-32-32h-8c-4.418,0-8,3.582-8,8
	c17.673,0,32,14.327,32,32v56c0,0,88,20.237,88,88v40h16V336z"/>
<path style="fill:#55D4BE;" d="M472.258,0H39.742C35.466,0,32,3.358,32,7.5v201c0,4.142,3.466,7.5,7.742,7.5h432.516
	c4.275,0,7.742-3.358,7.742-7.5V7.5C480,3.358,476.534,0,472.258,0z"/>
<path style="fill:#AAE9DF;" d="M456,72c-26.468,0-48-21.533-48-48c0-4.418-3.582-8-8-8H112c-4.418,0-8,3.582-8,8
	c0,26.467-21.533,48-48,48c-4.418,0-8,3.582-8,8v56c0,4.418,3.582,8,8,8c26.467,0,48,21.533,48,48c0,4.418,3.582,8,8,8h288
	c4.418,0,8-3.582,8-8c0-26.467,21.532-48,48-48c4.418,0,8-3.582,8-8V80C464,75.582,460.418,72,456,72z"/>
<path style="fill:#24BFB2;" d="M260,100h-8c-11.028,0-20-8.972-20-20s8.972-20,20-20h20c4.411,0,8,3.589,8,8c0,4.418,3.582,8,8,8
	s8-3.582,8-8c0-13.233-10.767-24-24-24h-8v-8c0-4.418-3.582-8-8-8s-8,3.582-8,8v8.228C230.026,46.224,216,61.502,216,80
	c0,19.851,16.149,36,36,36h8c11.028,0,20,8.972,20,20s-8.972,20-20,20h-20c-4.411,0-8-3.589-8-8c0-4.418-3.582-8-8-8s-8,3.582-8,8
	c0,13.233,10.767,24,24,24h8v8c0,4.418,3.582,8,8,8s8-3.582,8-8v-8.228c17.974-1.997,32-17.274,32-35.772
	C296,116.149,279.851,100,260,100z"/>
<path style="fill:#7FDECF;" d="M392,68c-22.056,0-40,17.944-40,40s17.944,40,40,40s40-17.944,40-40S414.056,68,392,68z"/>
<path style="fill:#55D4BE;" d="M344,68c-22.056,0-40,17.944-40,40s17.944,40,40,40s40-17.944,40-40S366.056,68,344,68z"/>
<path style="fill:#7FDECF;" d="M120,68c-22.056,0-40,17.944-40,40s17.944,40,40,40s40-17.944,40-40S142.056,68,120,68z"/>
<path style="fill:#55D4BE;" d="M168,68c-22.056,0-40,17.944-40,40s17.944,40,40,40s40-17.944,40-40S190.056,68,168,68z"/>
<path style="fill:#FEE2CA;" d="M216,488l0.235-77.639c-0.15-6.612-3.023-12.869-7.939-17.294l-64.352-57.917
	c-5.057-4.551-7.945-11.035-7.945-17.839V176c0-4.418,3.582-8,8-8h8c17.673,0,32,14.327,32,32v56c0,0,88,20.237,88,88v144H216"/>
<path style="fill:#FDD0AB;" d="M232.115,466.513l0.12-64.152c-0.15-6.612-3.023-12.869-7.939-17.294l-64.352-57.917
	c-5.057-4.551-7.945-11.035-7.945-17.839V168h-8c-4.418,0-8,3.582-8,8v141.311c0,6.804,2.888,13.288,7.945,17.839l64.352,57.917
	c4.916,4.424,7.788,10.682,7.939,17.294L216,488L232.115,466.513z"/>
<path style="fill:#F2EDEC;" d="M376,432H208c-4.418,0-8,3.582-8,8v64c0,4.418,3.582,8,8,8h168c4.418,0,8-3.582,8-8v-64
	C384,435.582,380.418,432,376,432z"/>
<path style="fill:#956B64;" d="M344,480c-3.309,0-6.364-2.124-7.504-5.231c-1.135-3.094-0.221-6.717,2.307-8.854
	c2.615-2.211,6.449-2.524,9.375-0.734c2.823,1.728,4.318,5.132,3.663,8.379C351.095,477.254,347.78,480,344,480z"/>
<g>
</g>
<g>
</g>
<g>
</g>
<g>
</g>
<g>
</g>
<g>
</g>
<g>
</g>
<g>
</g>
<g>
</g>
<g>
</g>
<g>
</g>
<g>
</g>
<g>
</g>
<g>
</g>
<g>
</g>
</svg>
