<?xml version="1.0" encoding="iso-8859-1"?>
<!-- Generator: Adobe Illustrator 19.0.0, SVG Export Plug-In . SVG Version: 6.00 Build 0)  -->
<svg version="1.1" id="Capa_1" xmlns="http://www.w3.org/2000/svg" xmlns:xlink="http://www.w3.org/1999/xlink" x="0px" y="0px"
	 viewBox="0 0 512 512" style="enable-background:new 0 0 512 512;" xml:space="preserve">
<g>
	<g>
		<path d="M482.767,137.095c-18.509-35.227-45.428-66.122-77.847-89.346c-3.371-2.417-8.068-1.642-10.484,1.732
			c-2.417,3.374-1.642,8.069,1.732,10.485C459.288,105.181,496.971,178.466,496.971,256c0,132.872-108.099,240.971-240.971,240.971
			S15.029,388.872,15.029,256c0-19.29,2.294-38.496,6.821-57.12c23.12-22.565,44.122-30.072,64.445-37.326
			c18.124-6.469,35.243-12.58,50.855-28.552c14.671-15.008,19.93-30.873,25.497-47.668c6.515-19.652,13.259-39.963,36.232-63.484
			c18.624-4.527,37.83-6.821,57.121-6.821c38.452,0,75.196,8.784,109.209,26.109c3.697,1.884,8.223,0.413,10.107-3.285
			c1.885-3.698,0.413-8.223-3.284-10.107C335.884,9.335,296.846,0,256,0c-21.231,0-42.37,2.618-62.829,7.78
			c-1.297,0.326-2.529,1.026-3.476,1.973L9.752,189.697c-0.949,0.949-1.64,2.175-1.973,3.475C2.617,213.63,0,234.769,0,256
			c0,68.381,26.628,132.667,74.98,181.02C123.333,485.371,187.619,512,256,512s132.667-26.629,181.02-74.98
			C485.372,388.667,512,324.381,512,256C512,214.611,501.891,173.494,482.767,137.095z M152.694,68.01
			c-1.565,4.309-2.957,8.506-4.313,12.597c-5.222,15.756-9.733,29.364-21.978,41.891c-13.186,13.49-28.003,18.779-45.159,24.903
			c-4.074,1.455-8.252,2.946-12.529,4.59L152.694,68.01z"/>
	</g>
</g>
<g>
	<g>
		<path d="M171.836,192.376c-6.961,0-13.835,0.86-20.54,2.566v-11.584h84.665c10.773,0,19.538-8.765,19.538-19.538
			c0-10.773-8.765-19.538-19.538-19.538h-84.164c-4.151,0-7.515,3.365-7.515,7.515c0,4.15,3.364,7.515,7.515,7.515h84.164
			c2.486,0,4.509,2.023,4.509,4.509c0,2.486-2.023,4.509-4.509,4.509h-92.18c-4.151,0-7.515,3.365-7.515,7.515v29.414
			c0,5.211,5.428,8.905,10.281,6.988c8.114-3.212,16.622-4.84,25.288-4.84c37.845,0,68.634,30.789,68.634,68.634
			s-30.789,68.634-68.634,68.634s-68.634-30.789-68.634-68.634c0-2.486,2.023-4.509,4.509-4.509c2.486,0,4.509,2.023,4.509,4.509
			c0,32.873,26.743,59.616,59.616,59.616c32.873,0,59.616-26.743,59.616-59.616c0-32.873-26.743-59.616-59.616-59.616
			c-13.706,0-26.589,4.521-37.258,13.074c-1.346,1.079-3.219,1.294-4.772,0.547c-1.554-0.745-2.558-2.342-2.558-4.065v-50.135
			c0-4.15-3.364-7.515-7.515-7.515s-7.515,3.365-7.515,7.515v50.135c0,7.469,4.35,14.382,11.083,17.614
			c6.734,3.232,14.847,2.302,20.677-2.37c7.974-6.393,17.606-9.771,27.857-9.771c24.585,0,44.587,20.001,44.587,44.587
			s-20.002,44.587-44.587,44.587s-44.587-20.001-44.587-44.587c0-10.773-8.765-19.538-19.538-19.538
			c-10.773,0-19.538,8.765-19.538,19.538c0,46.132,37.531,83.663,83.663,83.663c46.132,0,83.663-37.531,83.663-83.663
			S217.968,192.376,171.836,192.376z"/>
	</g>
</g>
<g>
	<g>
		<path d="M409.482,178.31c-15.875-21.943-37.646-34.028-61.302-34.028s-45.427,12.086-61.302,34.028
			c-14.42,19.931-22.362,46.098-22.362,73.682s7.941,53.751,22.362,73.681c15.875,21.944,37.647,34.029,61.302,34.029
			s45.427-12.086,61.302-34.028c14.42-19.931,22.362-46.098,22.362-73.682S423.902,198.241,409.482,178.31z M397.305,316.864
			c-12.973,17.933-30.419,27.809-49.125,27.809c-18.706,0-36.152-9.876-49.125-27.809c-12.581-17.388-19.509-40.427-19.509-64.872
			c0-24.445,6.929-47.484,19.509-64.872c12.973-17.933,30.419-27.809,49.125-27.809c18.706,0,36.152,9.876,49.125,27.809
			c12.581,17.388,19.509,40.427,19.509,64.872C416.814,276.437,409.886,299.476,397.305,316.864z"/>
	</g>
</g>
<g>
	<g>
		<path d="M389.741,191.515c-11.25-15.548-26.01-24.11-41.561-24.11c-15.551,0-30.312,8.563-41.561,24.111
			c-11.644,16.092-18.055,37.569-18.055,60.476s6.411,44.384,18.055,60.477c11.25,15.548,26.01,24.11,41.561,24.11
			c15.551,0,30.312-8.562,41.561-24.11c11.644-16.093,18.055-37.57,18.055-60.477S401.385,207.608,389.741,191.515z
			 M377.565,303.659c-8.347,11.538-18.784,17.891-29.385,17.891c-10.602,0-21.038-6.352-29.385-17.89
			c-9.802-13.55-15.202-31.9-15.202-51.668c0-19.768,5.4-38.117,15.202-51.667c8.347-11.538,18.784-17.891,29.385-17.891
			c10.602,0,21.038,6.353,29.385,17.891c9.802,13.549,15.202,31.899,15.202,51.667C392.767,271.76,387.368,290.11,377.565,303.659z"
			/>
	</g>
</g>
<g>
	<g>
		<path d="M301.393,370.921c-2.896-2.895-7.732-2.895-10.628,0l-80.157,80.157c-4.63,4.629-1.258,12.828,5.313,12.828
			c1.923,0,3.847-0.733,5.314-2.201l80.157-80.157C304.287,378.654,304.287,373.816,301.393,370.921z"/>
	</g>
</g>
<g>
	<g>
		<path d="M215.922,368.72c-12.983,0-23.546,10.563-23.546,23.546c0,12.983,10.563,23.546,23.546,23.546
			c12.983,0,23.546-10.563,23.546-23.546C239.468,379.283,228.905,368.72,215.922,368.72z M215.922,400.783
			c-4.696,0-8.517-3.82-8.517-8.517c0-4.696,3.82-8.517,8.517-8.517s8.517,3.82,8.517,8.517
			C224.438,396.962,220.618,400.783,215.922,400.783z"/>
	</g>
</g>
<g>
	<g>
		<path d="M296.078,416.814c-12.983,0-23.546,10.563-23.546,23.546c0,12.983,10.563,23.546,23.546,23.546
			c12.983,0,23.546-10.563,23.546-23.546C319.624,427.377,309.062,416.814,296.078,416.814z M296.078,448.877
			c-4.696,0-8.517-3.82-8.517-8.517c0-4.696,3.82-8.517,8.517-8.517c4.696,0,8.517,3.82,8.517,8.517
			C304.595,445.056,300.774,448.877,296.078,448.877z"/>
	</g>
</g>
<g>
	<g>
		<path d="M201.894,56.11c-13.204,0-23.546,13.863-23.546,31.562c0,17.699,10.342,31.562,23.546,31.562
			c13.204,0,23.546-13.863,23.546-31.562C225.44,69.973,215.098,56.11,201.894,56.11z M201.894,104.203
			c-3.473,0-8.517-6.441-8.517-16.532c0-10.092,5.044-16.532,8.517-16.532c3.473,0,8.517,6.441,8.517,16.532
			C210.411,97.763,205.367,104.203,201.894,104.203z"/>
	</g>
</g>
<g>
	<g>
		<path d="M272.031,71.139c4.151,0,7.515-3.365,7.515-7.515s-3.364-7.515-7.515-7.515h-30.059c-4.151,0-7.515,3.365-7.515,7.515
			v48.094c0,4.15,3.364,7.515,7.515,7.515s7.515-3.365,7.515-7.515V95.186h16.532c4.151,0,7.515-3.365,7.515-7.515
			c0-4.15-3.364-7.515-7.515-7.515h-16.532v-9.018H272.031z"/>
	</g>
</g>
<g>
	<g>
		<path d="M328.141,71.139c4.151,0,7.515-3.365,7.515-7.515s-3.364-7.515-7.515-7.515h-30.059c-4.151,0-7.515,3.365-7.515,7.515
			v48.094c0,4.15,3.364,7.515,7.515,7.515c4.151,0,7.515-3.365,7.515-7.515V95.186h16.532c4.151,0,7.515-3.365,7.515-7.515
			c0-4.15-3.364-7.515-7.515-7.515h-16.532v-9.018H328.141z"/>
	</g>
</g>
<g>
</g>
<g>
</g>
<g>
</g>
<g>
</g>
<g>
</g>
<g>
</g>
<g>
</g>
<g>
</g>
<g>
</g>
<g>
</g>
<g>
</g>
<g>
</g>
<g>
</g>
<g>
</g>
<g>
</g>
</svg>
