<?xml version="1.0" encoding="iso-8859-1"?>
<!-- Generator: Adobe Illustrator 19.0.0, SVG Export Plug-In . SVG Version: 6.00 Build 0)  -->
<svg version="1.1" id="Capa_1" xmlns="http://www.w3.org/2000/svg" xmlns:xlink="http://www.w3.org/1999/xlink" x="0px" y="0px"
	 viewBox="0 0 512 512" style="enable-background:new 0 0 512 512;" xml:space="preserve">
<path style="fill:#F79191;" d="M256,0c-21.182,0-41.756,2.591-61.44,7.44L112,104L7.44,194.56C2.591,214.244,0,234.818,0,256
	c0,141.385,114.615,256,256,256s256-114.615,256-256S397.385,0,256,0z"/>
<path style="fill:#F56C6C;" d="M425.706,86.294C380.376,40.964,320.106,16,256,16c-27.527,0-54.919,4.798-80.717,13.986L112,104
	l-81.915,70.947C20.821,200.839,16,228.341,16,256c0,64.106,24.965,124.375,70.294,169.706C131.624,471.036,191.894,496,256,496
	s124.376-24.964,169.706-70.294C471.035,380.375,496,320.106,496,256S471.035,131.625,425.706,86.294z"/>
<g>
	<path style="fill:#CAD95E;" d="M223,192c11.028,0,20-8.972,20-20s-8.972-20-20-20H119c-11.028,0-20,8.972-20,20v70.037
		c0,7.645,4.453,14.722,11.345,18.03c6.89,3.308,15.197,2.358,21.165-2.425C139.378,251.334,148.885,248,159,248
		c24.262,0,44,19.738,44,44s-19.738,44-44,44s-44-19.738-44-44c0-11.028-8.972-20-20-20s-20,8.972-20,20c0,46.318,37.683,84,84,84
		s84-37.682,84-84s-37.683-84-84-84c-6.772,0-13.465,0.812-20,2.42V192H223z"/>
	<path style="fill:#CAD95E;" d="M412.673,187.525C396.737,164.616,374.835,152,351,152s-45.737,12.616-61.673,35.524
		C274.93,208.221,267,235.38,267,264s7.93,55.779,22.327,76.475C305.263,363.384,327.165,376,351,376s45.737-12.616,61.673-35.524
		C427.07,319.779,435,292.62,435,264S427.07,208.221,412.673,187.525z M351,336c-10.355,0-20.598-6.523-28.837-18.367
		C312.385,303.577,307,284.53,307,264s5.385-39.577,15.163-53.632C330.402,198.523,340.645,192,351,192s20.598,6.523,28.837,18.367
		C389.615,224.423,395,243.47,395,264s-5.385,39.577-15.163,53.632C371.598,329.477,361.355,336,351,336z"/>
</g>
<path style="fill:#E4DAD8;" d="M194.56,7.44L7.44,194.56C64,144,93.722,159.935,126.008,128C158.962,95.405,136,72,194.56,7.44z"/>
<g>
	<circle style="fill:#F2EDEC;" cx="227" cy="400" r="16"/>
	<circle style="fill:#F2EDEC;" cx="283" cy="440" r="16"/>
	<path style="fill:#F2EDEC;" d="M288.657,386.343c-3.125-3.124-8.189-3.124-11.314,0l-56,56c-2.888,2.888-3.104,7.636-0.491,10.775
		c2.969,3.567,8.524,3.819,11.805,0.539l56-56C291.781,394.533,291.781,389.467,288.657,386.343z"/>
	<path style="fill:#F2EDEC;" d="M196,64c-13.458,0-24,14.056-24,32s10.542,32,24,32s24-14.056,24-32S209.458,64,196,64z M196,112
		c-3.262,0-8-6.233-8-16s4.738-16,8-16s8,6.233,8,16S199.262,112,196,112z"/>
	<path style="fill:#F2EDEC;" d="M276,64h-30c-4.418,0-8,3.582-8,8v48c0,4.418,3.582,8,8,8s8-3.582,8-8v-16h16c4.418,0,8-3.582,8-8
		s-3.582-8-8-8h-16v-8h22c4.418,0,8-3.582,8-8S280.418,64,276,64z"/>
	<path style="fill:#F2EDEC;" d="M332,80c4.418,0,8-3.582,8-8s-3.582-8-8-8h-30c-4.418,0-8,3.582-8,8v48c0,4.418,3.582,8,8,8
		s8-3.582,8-8v-16h16c4.418,0,8-3.582,8-8s-3.582-8-8-8h-16v-8H332z"/>
</g>
<g>
</g>
<g>
</g>
<g>
</g>
<g>
</g>
<g>
</g>
<g>
</g>
<g>
</g>
<g>
</g>
<g>
</g>
<g>
</g>
<g>
</g>
<g>
</g>
<g>
</g>
<g>
</g>
<g>
</g>
</svg>
