<?xml version="1.0" encoding="iso-8859-1"?>
<!-- Generator: Adobe Illustrator 19.0.0, SVG Export Plug-In . SVG Version: 6.00 Build 0)  -->
<svg version="1.1" id="Capa_1" xmlns="http://www.w3.org/2000/svg" xmlns:xlink="http://www.w3.org/1999/xlink" x="0px" y="0px"
	 viewBox="0 0 512 512" style="enable-background:new 0 0 512 512;" xml:space="preserve">
<path style="fill:#F56C6C;" d="M256,7.515c-21.045,0-41.474,2.627-60.99,7.552L15.066,195.01
	c-4.925,19.516-7.552,39.945-7.552,60.99c0,137.235,111.25,248.485,248.485,248.485S504.485,393.235,504.485,256
	S393.235,7.515,256,7.515z"/>
<g>
	<path style="fill:#CAD95E;" d="M235.961,175.843c6.64,0,12.023-5.384,12.023-12.023s-5.384-12.023-12.023-12.023H131.757
		c-6.64,0-12.023,5.384-12.023,12.023v62.158c0,4.624,2.651,8.838,6.82,10.839c4.169,2.002,9.117,1.434,12.724-1.458
		c9.322-7.473,20.58-11.422,32.558-11.422c28.729,0,52.102,23.373,52.102,52.102c0,28.729-23.373,52.102-52.102,52.102
		s-52.102-23.373-52.102-52.102c0-6.64-5.384-12.023-12.023-12.023s-12.023,5.383-12.023,12.023
		c0,41.989,34.161,76.149,76.149,76.149s76.149-34.16,76.149-76.149s-34.161-76.149-76.149-76.149
		c-9.643,0-19.174,1.853-28.055,5.367v-29.414H235.961z"/>
	<path style="fill:#CAD95E;" d="M403.393,182.716c-14.424-19.939-34.033-30.919-55.213-30.919c-21.179,0-40.789,10.98-55.213,30.919
		c-13.501,18.66-20.936,43.263-20.936,69.276s7.435,50.616,20.936,69.276c14.424,19.939,34.033,30.919,55.213,30.919
		c21.179,0,40.789-10.98,55.213-30.919c13.501-18.66,20.936-43.263,20.936-69.276S416.894,201.376,403.393,182.716z
		 M383.653,308.065c-9.798,13.542-22.397,21.001-35.473,21.001c-13.077,0-25.675-7.459-35.473-21.001
		c-10.723-14.822-16.628-34.735-16.628-56.073s5.906-41.251,16.628-56.073c9.798-13.542,22.397-21.001,35.473-21.001
		c13.077,0,25.675,7.459,35.473,21.001c10.723,14.822,16.628,34.735,16.628,56.073S394.376,293.243,383.653,308.065z"/>
</g>
<path style="fill:#F2EDEC;" d="M15.066,195.01c45.886-45.886,85.229-35.053,116.711-67.26
	c30.154-30.848,17.348-66.797,63.234-112.683"/>
<path d="M482.767,137.095c-18.509-35.227-45.428-66.122-77.847-89.345c-3.371-2.417-8.068-1.642-10.484,1.732
	c-2.417,3.374-1.642,8.069,1.732,10.485C459.288,105.181,496.971,178.466,496.971,256c0,132.872-108.099,240.971-240.971,240.971
	S15.029,388.872,15.029,256c0-19.29,2.294-38.496,6.821-57.12c23.12-22.565,44.122-30.072,64.445-37.326
	c18.124-6.469,35.243-12.58,50.855-28.552c14.671-15.008,19.93-30.873,25.497-47.668c6.515-19.652,13.259-39.963,36.232-63.484
	c18.624-4.527,37.83-6.821,57.121-6.821c38.452,0,75.196,8.784,109.209,26.109c3.697,1.884,8.223,0.413,10.107-3.285
	c1.885-3.698,0.413-8.223-3.284-10.107C335.884,9.335,296.846,0,256,0c-21.231,0-42.37,2.618-62.829,7.78
	c-1.298,0.326-2.529,1.026-3.476,1.973L9.752,189.697c-0.949,0.949-1.64,2.175-1.973,3.475C2.617,213.63,0,234.769,0,256
	c0,68.381,26.628,132.667,74.98,181.02C123.333,485.371,187.619,512,256,512s132.667-26.629,181.02-74.98
	C485.372,388.667,512,324.381,512,256C512,214.611,501.891,173.494,482.767,137.095z M126.403,122.497
	c-13.186,13.49-28.003,18.779-45.159,24.903c-4.074,1.455-8.252,2.946-12.529,4.59l83.98-83.98
	c-1.565,4.309-2.957,8.506-4.313,12.597C143.159,96.362,138.648,109.971,126.403,122.497z"/>
<path d="M171.836,320.626c-24.585,0-44.587-20.001-44.587-44.587c0-10.773-8.765-19.538-19.538-19.538s-19.538,8.765-19.538,19.538
	c0,46.132,37.531,83.663,83.663,83.663s83.663-37.531,83.663-83.663s-37.531-83.663-83.663-83.663c-6.961,0-13.835,0.86-20.54,2.566
	v-11.584h84.665c10.773,0,19.538-8.765,19.538-19.538s-8.765-19.538-19.538-19.538h-84.164c-4.151,0-7.515,3.365-7.515,7.515
	s3.364,7.515,7.515,7.515h84.164c2.486,0,4.509,2.023,4.509,4.509s-2.023,4.509-4.509,4.509h-92.18
	c-4.151,0-7.515,3.365-7.515,7.515v29.414c0,5.211,5.428,8.905,10.281,6.988c8.114-3.212,16.622-4.84,25.288-4.84
	c37.845,0,68.634,30.789,68.634,68.634c0,37.845-30.789,68.634-68.634,68.634s-68.634-30.789-68.634-68.634
	c0-2.486,2.023-4.509,4.509-4.509c2.486,0,4.509,2.023,4.509,4.509c0,32.873,26.743,59.616,59.616,59.616
	s59.616-26.743,59.616-59.616s-26.743-59.616-59.616-59.616c-13.706,0-26.589,4.521-37.258,13.074
	c-1.346,1.079-3.219,1.294-4.772,0.547c-1.554-0.745-2.558-2.342-2.558-4.065v-50.135c0-4.15-3.364-7.515-7.515-7.515
	c-4.151,0-7.515,3.365-7.515,7.515v50.135c0,7.469,4.35,14.382,11.083,17.614c6.734,3.232,14.847,2.301,20.677-2.37
	c7.974-6.392,17.606-9.771,27.857-9.771c24.585,0,44.587,20.001,44.587,44.587C216.423,300.625,196.421,320.626,171.836,320.626z"/>
<path d="M409.482,325.674c14.42-19.931,22.362-46.098,22.362-73.682s-7.941-53.751-22.362-73.682l0,0
	c-15.875-21.943-37.647-34.028-61.302-34.028c-23.655,0-45.427,12.086-61.302,34.028c-14.42,19.931-22.362,46.098-22.362,73.682
	s7.941,53.751,22.362,73.681c15.875,21.944,37.647,34.029,61.302,34.029C371.835,359.703,393.607,347.617,409.482,325.674z
	 M299.055,316.864c-12.581-17.388-19.509-40.427-19.509-64.872s6.929-47.484,19.509-64.872
	c12.973-17.933,30.419-27.809,49.125-27.809c18.706,0,36.152,9.876,49.125,27.809l0,0c12.581,17.388,19.509,40.427,19.509,64.872
	s-6.929,47.484-19.509,64.872c-12.973,17.933-30.419,27.809-49.125,27.809C329.474,344.673,312.028,334.797,299.055,316.864z"/>
<path d="M389.741,312.469L389.741,312.469c11.644-16.093,18.055-37.57,18.055-60.477s-6.411-44.384-18.055-60.477
	c-11.25-15.548-26.01-24.11-41.561-24.11c-15.551,0-30.312,8.563-41.561,24.111c-11.644,16.092-18.055,37.569-18.055,60.476
	s6.411,44.384,18.055,60.477c11.25,15.548,26.01,24.11,41.561,24.11C363.731,336.579,378.492,328.018,389.741,312.469z
	 M318.795,303.66c-9.802-13.55-15.202-31.9-15.202-51.668s5.4-38.117,15.202-51.667c8.347-11.538,18.784-17.891,29.385-17.891
	c10.602,0,21.038,6.353,29.385,17.891c9.802,13.549,15.202,31.899,15.202,51.667s-5.4,38.117-15.202,51.667
	c-8.347,11.538-18.784,17.891-29.385,17.891C337.578,321.55,327.142,315.198,318.795,303.66z"/>
<path d="M215.922,463.906c1.923,0,3.847-0.733,5.314-2.201l80.157-80.157c2.895-2.895,2.895-7.732,0-10.627
	c-2.896-2.895-7.732-2.895-10.628,0l-80.157,80.157C205.978,455.707,209.35,463.906,215.922,463.906z"/>
<path d="M215.922,415.812c12.983,0,23.546-10.563,23.546-23.546s-10.563-23.546-23.546-23.546s-23.546,10.563-23.546,23.546
	S202.938,415.812,215.922,415.812z M215.922,383.75c4.696,0,8.517,3.82,8.517,8.517c0,4.696-3.82,8.517-8.517,8.517
	s-8.517-3.82-8.517-8.517C207.405,387.57,211.226,383.75,215.922,383.75z"/>
<path d="M296.078,463.906c12.983,0,23.546-10.563,23.546-23.546s-10.563-23.546-23.546-23.546s-23.546,10.563-23.546,23.546
	S283.095,463.906,296.078,463.906z M296.078,431.843c4.696,0,8.517,3.82,8.517,8.517c0,4.696-3.82,8.517-8.517,8.517
	c-4.696,0-8.517-3.82-8.517-8.517C287.562,435.664,291.382,431.843,296.078,431.843z"/>
<path d="M225.44,87.671c0-17.699-10.342-31.562-23.546-31.562s-23.546,13.863-23.546,31.562s10.342,31.562,23.546,31.562
	S225.44,105.37,225.44,87.671z M193.378,87.671c0-10.092,5.044-16.532,8.517-16.532c3.473,0,8.517,6.441,8.517,16.532
	s-5.044,16.532-8.517,16.532C198.422,104.204,193.378,97.763,193.378,87.671z"/>
<path d="M272.031,71.139c4.151,0,7.515-3.365,7.515-7.515s-3.364-7.515-7.515-7.515h-30.059c-4.151,0-7.515,3.365-7.515,7.515
	v48.094c0,4.15,3.364,7.515,7.515,7.515c4.151,0,7.515-3.365,7.515-7.515V95.186h16.532c4.151,0,7.515-3.365,7.515-7.515
	c0-4.15-3.364-7.515-7.515-7.515h-16.532v-9.018H272.031z"/>
<path d="M328.141,71.139c4.151,0,7.515-3.365,7.515-7.515s-3.364-7.515-7.515-7.515h-30.059c-4.151,0-7.515,3.365-7.515,7.515
	v48.094c0,4.15,3.364,7.515,7.515,7.515c4.151,0,7.515-3.365,7.515-7.515V95.186h16.532c4.151,0,7.515-3.365,7.515-7.515
	c0-4.15-3.364-7.515-7.515-7.515h-16.532v-9.018H328.141z"/>
<g>
</g>
<g>
</g>
<g>
</g>
<g>
</g>
<g>
</g>
<g>
</g>
<g>
</g>
<g>
</g>
<g>
</g>
<g>
</g>
<g>
</g>
<g>
</g>
<g>
</g>
<g>
</g>
<g>
</g>
</svg>
