<?xml version="1.0" encoding="iso-8859-1"?>
<!-- Generator: Adobe Illustrator 19.0.0, SVG Export Plug-In . SVG Version: 6.00 Build 0)  -->
<svg version="1.1" id="Capa_1" xmlns="http://www.w3.org/2000/svg" xmlns:xlink="http://www.w3.org/1999/xlink" x="0px" y="0px"
	 viewBox="0 0 496 496" style="enable-background:new 0 0 496 496;" xml:space="preserve">
<circle style="fill:#FFCB57;" cx="248" cy="248" r="96"/>
<g>
	<path style="fill:#E56565;" d="M432,264h-64v-95.568c-25.16-12.704-40-39.36-40-72.432c0-45.408,29.568-96,72-96s72,50.592,72,96
		c0,33.072-14.84,59.728-40,72.432V264z M384,248h32v-90.056l4.952-2.04C442.896,146.864,456,124.48,456,96
		c0-41.864-26.696-80-56-80s-56,38.136-56,80c0,28.48,13.104,50.864,35.048,59.904l4.952,2.04V248z"/>
	<path style="fill:#E56565;" d="M400,496c-17.648,0-32-14.352-32-32v-64h16v64c0,8.824,7.176,16,16,16s16-7.176,16-16v-64h16v64
		C432,481.648,417.648,496,400,496z"/>
	<path style="fill:#E56565;" d="M96.016,496c-0.568,0-1.144-0.016-1.72-0.04C77.304,495.072,64,480.432,64,462.64V400h16v62.64
		c0,9.128,6.792,16.896,15.136,17.336c4.52,0.24,8.672-1.32,11.88-4.376S112,468.432,112,464v-64h16v64
		c0,8.736-3.632,17.192-9.968,23.208C112.016,492.912,104.256,496,96.016,496z"/>
	<path style="fill:#E56565;" d="M128,264H64v-95.568C38.84,155.728,24,129.072,24,96V20C24,8.976,32.968,0,44,0s20,8.976,20,20v60h8
		V24C72,10.768,82.768,0,96,0s24,10.768,24,24v56h8V20c0-11.024,8.968-20,20-20s20,8.976,20,20v76c0,33.072-14.84,59.728-40,72.432
		V264z M80,248h32v-90.056l4.952-2.04C138.896,146.864,152,124.48,152,96V20c0-2.208-1.8-4-4-4s-4,1.792-4,4v76h-40V24
		c0-4.408-3.584-8-8-8s-8,3.592-8,8v72H48V20c0-2.208-1.8-4-4-4s-4,1.792-4,4v76c0,28.48,13.104,50.864,35.048,59.904l4.952,2.04
		V248z"/>
</g>
<g>
	<polygon style="fill:#3F3A34;" points="480,112 480,368 16,368 16,112 0,112 0,384 496,384 496,112 	"/>
	<path style="fill:#3F3A34;" d="M248,352c57.344,0,104-46.656,104-104s-46.656-104-104-104s-104,46.656-104,104S190.656,352,248,352
		z M248,160c48.52,0,88,39.48,88,88s-39.48,88-88,88s-88-39.48-88-88S199.48,160,248,160z"/>
	<path style="fill:#3F3A34;" d="M240,304v16h16v-16c17.648,0,32-14.352,32-32s-14.352-32-32-32h-16c-8.824,0-16-7.176-16-16
		s7.176-16,16-16h16c8.824,0,16,7.176,16,16v8h16v-8c0-17.648-14.352-32-32-32v-16h-16v16c-17.648,0-32,14.352-32,32
		s14.352,32,32,32h16c8.824,0,16,7.176,16,16s-7.176,16-16,16h-16c-8.824,0-16-7.176-16-16v-8h-16v8
		C208,289.648,222.352,304,240,304z"/>
	<rect x="184" y="112" style="fill:#3F3A34;" width="128" height="16"/>
</g>
<g>
</g>
<g>
</g>
<g>
</g>
<g>
</g>
<g>
</g>
<g>
</g>
<g>
</g>
<g>
</g>
<g>
</g>
<g>
</g>
<g>
</g>
<g>
</g>
<g>
</g>
<g>
</g>
<g>
</g>
</svg>
