<?xml version="1.0" encoding="iso-8859-1"?>
<!-- Generator: Adobe Illustrator 19.0.0, SVG Export Plug-In . SVG Version: 6.00 Build 0)  -->
<svg version="1.1" id="Capa_1" xmlns="http://www.w3.org/2000/svg" xmlns:xlink="http://www.w3.org/1999/xlink" x="0px" y="0px"
	 viewBox="0 0 512 512" style="enable-background:new 0 0 512 512;" xml:space="preserve">
<path style="fill:#F2EDEC;" d="M344,0H120C97.944,0,80,17.944,80,40v432c0,22.056,17.944,40,40,40h224c22.056,0,40-17.944,40-40V40
	C384,17.944,366.056,0,344,0z"/>
<g>
	<path style="fill:#885951;" d="M384,432H80v40c0,22.091,17.909,40,40,40h224c22.091,0,40-17.909,40-40V432z"/>
	<path style="fill:#885951;" d="M344,0H120C97.909,0,80,17.909,80,40v24h304V40C384,17.909,366.091,0,344,0z"/>
</g>
<g>
	<path style="fill:#7A463D;" d="M233,40h-1c-4.418,0-8-3.582-8-8s3.582-8,8-8h1c4.418,0,8,3.582,8,8S237.418,40,233,40z"/>
	<path style="fill:#7A463D;" d="M273,40h-1c-4.418,0-8-3.582-8-8s3.582-8,8-8h1c4.418,0,8,3.582,8,8S277.418,40,273,40z"/>
	<path style="fill:#7A463D;" d="M193,40h-1c-4.418,0-8-3.582-8-8s3.582-8,8-8h1c4.418,0,8,3.582,8,8S197.418,40,193,40z"/>
</g>
<path style="fill:#A27E77;" d="M248,480h-32c-4.418,0-8-3.582-8-8s3.582-8,8-8h32c4.418,0,8,3.582,8,8S252.418,480,248,480z"/>
<path style="fill:#CAD95E;" d="M400,88H208c-17.645,0-32,14.355-32,32v248c0,6.677,8.107,10.445,13.206,6.074L242.959,328H400
	c17.645,0,32-14.355,32-32V120C432,102.355,417.645,88,400,88z"/>
<path style="fill:#B9CC29;" d="M416,312H232l-26.794,22.122c-5.099,4.371-13.206,0.603-13.206-6.074V92.305
	c-9.555,5.542-16,15.877-16,27.695v248c0,6.677,8.107,10.445,13.206,6.074L242.959,328H400c12.956,0,24.129-7.744,29.158-18.842
	C425.141,310.978,420.689,312,416,312z"/>
<path style="fill:#E4DAD8;" d="M359.19,258.94l-74.7-69.364c2.629-5.299,3.587-11.608,2.645-18.205
	c-1.296-9.075-5.967-18.029-13.151-25.213c-15.4-15.402-37.921-17.938-50.204-5.657c-12.282,12.282-9.744,34.804,5.657,50.205
	c8.835,8.835,20.011,13.437,30.255,13.436c4.688,0,9.179-0.969,13.162-2.932l69.366,74.702c4.686,4.687,12.284,4.687,16.97,0
	C363.876,271.225,363.876,263.627,359.19,258.94z"/>
<path style="fill:#F2EDEC;" d="M392.36,169.005c-3.124-3.124-8.19-3.124-11.314,0l-28.284,28.284l-5.657-5.657l28.284-28.284
	c3.124-3.124,3.124-8.19,0-11.314s-8.19-3.124-11.314,0l-28.284,28.284l-5.657-5.657l28.284-28.284c3.124-3.124,3.124-8.19,0-11.314
	s-8.19-3.124-11.314,0l-33.941,33.941c-6.248,6.248-6.248,16.379,0,22.627l2.828,2.828l-65.054,65.054
	c-4.686,4.686-4.686,12.284,0,16.971s12.284,4.686,16.971,0l65.054-65.054l2.828,2.828c6.248,6.248,16.379,6.248,22.627,0
	l33.941-33.941C395.484,177.195,395.484,172.129,392.36,169.005z"/>
<g>
</g>
<g>
</g>
<g>
</g>
<g>
</g>
<g>
</g>
<g>
</g>
<g>
</g>
<g>
</g>
<g>
</g>
<g>
</g>
<g>
</g>
<g>
</g>
<g>
</g>
<g>
</g>
<g>
</g>
</svg>
