<?xml version="1.0" standalone="no"?>
<!DOCTYPE svg PUBLIC "-//W3C//DTD SVG 20010904//EN"
 "http://www.w3.org/TR/2001/REC-SVG-20010904/DTD/svg10.dtd">
<svg version="1.0" xmlns="http://www.w3.org/2000/svg"
 width="1029.000000pt" height="1029.000000pt" viewBox="0 0 1029.000000 1029.000000"
 preserveAspectRatio="xMidYMid meet">
<metadata>
Created by potrace 1.11, written by Peter Selinger 2001-2013
</metadata>
<g transform="translate(0.000000,1029.000000) scale(0.100000,-0.100000)"
fill="#000000" stroke="none">
<path d="M4898 9905 c-1 -1 -57 -6 -123 -9 -66 -4 -133 -9 -150 -11 -16 -2
-52 -7 -80 -10 -68 -8 -113 -14 -155 -21 -19 -3 -48 -8 -65 -10 -25 -3 -146
-25 -210 -38 -763 -155 -1518 -516 -2115 -1011 -301 -250 -605 -579 -826 -895
-62 -88 -175 -264 -187 -290 -4 -8 -15 -28 -25 -45 -168 -275 -353 -726 -438
-1063 -17 -68 -54 -232 -58 -257 -3 -16 -8 -41 -11 -55 -2 -14 -7 -36 -10 -50
-2 -14 -7 -47 -11 -75 -3 -27 -8 -59 -10 -70 -2 -11 -7 -47 -10 -80 -3 -33 -8
-71 -10 -85 -22 -130 -22 -764 0 -832 3 -7 7 -41 11 -76 3 -34 10 -86 16 -115
5 -29 12 -65 15 -82 11 -66 54 -236 84 -330 36 -112 150 -395 160 -395 13 0
276 268 337 344 217 269 378 615 523 1130 27 98 52 188 55 200 2 11 9 37 14
56 5 19 21 80 36 135 113 428 180 615 305 864 230 458 581 892 970 1201 36 28
76 60 90 71 47 38 275 187 365 239 227 131 527 257 760 321 39 11 77 22 85 24
28 8 295 63 330 69 19 3 58 8 85 11 28 4 60 8 73 10 70 12 242 19 427 19 243
0 329 -6 483 -30 20 -3 48 -7 62 -9 26 -3 146 -25 215 -39 98 -20 361 -97 425
-123 8 -3 17 -7 20 -7 7 -2 61 -23 170 -69 322 -133 661 -344 935 -581 93 -80
319 -307 385 -386 25 -29 56 -67 70 -84 172 -207 375 -545 496 -826 110 -258
217 -633 248 -880 3 -19 8 -57 11 -85 14 -98 15 -123 19 -380 5 -256 -9 -468
-40 -630 -2 -11 -7 -36 -10 -55 -11 -58 -12 -62 -32 -155 -84 -378 -270 -816
-491 -1150 -49 -76 -136 -198 -162 -230 -217 -263 -364 -413 -590 -600 -64
-53 -246 -181 -354 -248 -232 -144 -488 -264 -749 -351 -76 -25 -148 -48 -160
-50 -11 -2 -55 -13 -96 -25 -76 -20 -198 -46 -267 -57 -21 -3 -49 -7 -63 -10
-14 -2 -47 -7 -75 -10 -27 -3 -61 -8 -75 -10 -142 -22 -580 -21 -775 1 -117
14 -282 40 -313 49 -9 3 -33 8 -52 11 -19 3 -78 17 -130 31 -52 14 -102 27
-110 29 -35 8 -223 75 -319 114 -138 56 -396 187 -468 239 -17 12 -33 22 -36
22 -3 0 -40 24 -82 53 -42 28 -98 63 -124 77 -92 49 -390 254 -405 278 -7 11
103 82 224 142 282 142 595 239 895 277 63 8 272 9 485 3 107 -4 224 3 280 15
351 78 579 224 823 527 21 26 43 53 50 60 7 7 44 51 82 98 38 47 72 87 75 90
5 5 185 220 220 264 8 10 20 23 25 30 6 6 87 103 180 216 94 113 180 216 191
230 12 14 44 52 71 85 120 145 798 964 833 1005 258 306 531 646 538 673 18
68 -25 159 -90 193 -37 19 -115 21 -149 4 -13 -7 -618 -605 -1344 -1330 -726
-725 -1330 -1323 -1342 -1329 -11 -6 -42 -13 -67 -16 -80 -10 -157 37 -190
116 -16 38 -14 115 5 152 6 12 601 613 1322 1335 764 764 1320 1328 1331 1349
73 143 -71 295 -224 235 -14 -6 -620 -604 -1345 -1329 -764 -763 -1333 -1324
-1350 -1331 -42 -17 -93 -21 -128 -11 -77 22 -137 96 -137 170 0 93 -61 28
1337 1429 724 726 1323 1330 1332 1342 26 37 22 145 -7 186 -43 60 -138 87
-207 58 -26 -11 -422 -401 -1354 -1332 -893 -894 -1328 -1322 -1354 -1334 -99
-45 -229 19 -256 127 -10 39 -9 58 6 118 3 11 603 619 1334 1350 751 752 1333
1342 1338 1358 26 69 6 143 -52 194 -41 36 -82 47 -141 39 -41 -7 -121 -68
-476 -367 -25 -20 -169 -140 -320 -265 -263 -219 -1023 -850 -1065 -885 -11
-10 -94 -79 -185 -155 -887 -741 -933 -784 -1033 -931 -84 -126 -173 -321
-191 -418 -3 -16 -11 -50 -18 -75 -8 -30 -11 -106 -9 -230 6 -364 6 -456 -1
-505 -14 -96 -29 -170 -44 -216 -8 -25 -16 -55 -19 -67 -7 -41 -78 -207 -131
-312 -117 -230 -268 -435 -469 -636 -383 -383 -554 -606 -560 -731 -5 -82 9
-108 133 -253 551 -645 1345 -1128 2252 -1370 128 -34 253 -63 330 -76 14 -2
36 -7 50 -9 65 -13 129 -24 175 -30 17 -3 48 -7 70 -10 76 -12 90 -14 170 -21
44 -3 88 -8 97 -9 124 -23 745 -23 935 0 15 2 57 6 93 9 36 4 76 9 90 11 14 3
39 7 55 9 227 36 303 52 495 102 175 45 350 102 525 171 180 71 201 80 377
168 918 459 1663 1205 2123 2124 46 91 95 195 110 231 15 36 36 84 46 107 10
23 19 47 19 53 0 6 9 29 20 50 11 22 18 40 14 40 -4 0 -2 6 4 13 8 10 85 236
98 287 2 8 17 65 34 125 30 109 63 257 86 385 4 19 8 44 10 55 2 11 7 40 10
65 3 25 8 53 10 64 2 10 6 44 9 75 3 31 8 67 10 81 2 14 7 59 10 100 3 41 7
107 10 145 11 145 5 537 -11 690 -16 156 -28 256 -39 316 -2 9 -6 38 -10 65
-4 38 -58 288 -79 374 -203 807 -649 1594 -1235 2177 -174 172 -385 358 -491
433 -19 13 -37 27 -40 30 -37 40 -373 259 -555 360 -322 179 -827 379 -1125
445 -8 2 -66 15 -128 30 -115 26 -292 58 -391 70 -30 4 -63 9 -75 11 -11 2
-52 6 -91 10 -38 3 -86 8 -105 10 -41 6 -616 14 -622 9z"/>
</g>
</svg>
